HIERARCHY
ROOT Root
{
	OFFSET 0.00000 0.00000 0.00000
	CHANNELS 6 Xposition Yposition Zposition Zrotation Xrotation Yrotation
	JOINT Hip
	{
		OFFSET 0 0 0	
		CHANNELS 3 Zrotation Xrotation Yrotation
		JOINT Tummy
		{
			OFFSET 0 0.04 0	
			CHANNELS 3 Zrotation Xrotation Yrotation
			JOINT ChestBottom
			{
				OFFSET 0 0.194 0	
				CHANNELS 3 Zrotation Xrotation Yrotation
				JOINT ChestTop
				{
					OFFSET 0 0.166 0	
					CHANNELS 3 Zrotation Xrotation Yrotation
					JOINT LeftCollar
					{
						OFFSET 0 0.1 0	
						CHANNELS 3 Zrotation Xrotation Yrotation
						JOINT LeftUpperArm
						{
							OFFSET 0.156 -0.02 0.03	
							CHANNELS 3 Zrotation Xrotation Yrotation
							JOINT LeftForeArm
							{
								OFFSET 0.035 -0.27 -0.01	
								CHANNELS 3 Zrotation Xrotation Yrotation
								JOINT LeftHand
								{
									OFFSET 0.01 -0.27 0.01	
									CHANNELS 3 Zrotation Xrotation Yrotation
									End Site
									{
										OFFSET 0 -0.15 0
									}
								}
							}
						}
					}
					JOINT RightCollar
					{
						OFFSET 0 0.1 0	
						CHANNELS 3 Zrotation Xrotation Yrotation
						JOINT RightUpperArm
						{
							OFFSET -0.156 -0.02 0.03	
							CHANNELS 3 Zrotation Xrotation Yrotation
							JOINT RightForeArm
							{
								OFFSET -0.035 -0.27 -0.01	
								CHANNELS 3 Zrotation Xrotation Yrotation
								JOINT RightHand
								{
									OFFSET -0.01 -0.27 0.01	
									CHANNELS 3 Zrotation Xrotation Yrotation
									End Site
									{
										OFFSET 0 -0.15 0
									}
								}
							}
						}
					}
					JOINT Neck
					{
						OFFSET 0 0.1 0	
						CHANNELS 3 Zrotation Xrotation Yrotation
						JOINT Head
						{
							OFFSET 0 0.127 0.03	
							CHANNELS 3 Zrotation Xrotation Yrotation
							End Site
							{
								OFFSET 0 0.127 0.03
							}
						}
					}
				}
			}
		}
	}
	JOINT LeftHip
	{
		OFFSET 0 0 0	
		CHANNELS 3 Zrotation Xrotation Yrotation
		JOINT LeftThigh
		{
			OFFSET 0.088 -0.06 0	
			CHANNELS 3 Zrotation Xrotation Yrotation
			JOINT LeftLowerLeg
			{
				OFFSET 0 -0.39 0.02	
				CHANNELS 3 Zrotation Xrotation Yrotation
				JOINT LeftFootTop
				{
					OFFSET 0 -0.43 -0.02	
					CHANNELS 3 Zrotation Xrotation Yrotation
					JOINT LeftFootFront
					{
						OFFSET 0 -0.07 0.085	
						CHANNELS 3 Zrotation Xrotation Yrotation
						End Site
						{
							OFFSET 0 -0.005 0.09
						}
					}
				}
				JOINT LeftHeel
				{
					OFFSET 0 -0.43 -0.02	
					CHANNELS 3 Zrotation Xrotation Yrotation
					End Site
					{
						OFFSET 0 -0.075 -0.05
					}
				}
			}
		}
	}
	JOINT RightHip
	{
		OFFSET 0 0 0	
		CHANNELS 3 Zrotation Xrotation Yrotation
		JOINT RightThigh
		{
			OFFSET -0.088 -0.06 0	
			CHANNELS 3 Zrotation Xrotation Yrotation
			JOINT RightLowerLeg
			{
				OFFSET 0 -0.39 0.02	
				CHANNELS 3 Zrotation Xrotation Yrotation
				JOINT RightFootTop
				{
					OFFSET 0 -0.43 -0.02	
					CHANNELS 3 Zrotation Xrotation Yrotation
					JOINT RightFootFront
					{
						OFFSET 0 -0.07 0.085	
						CHANNELS 3 Zrotation Xrotation Yrotation
						End Site
						{
							OFFSET 0 -0.005 0.09
						}
					}
				}
				JOINT RightHeel
				{
					OFFSET 0 -0.43 -0.02	
					CHANNELS 3 Zrotation Xrotation Yrotation
					End Site
					{
						OFFSET 0 -0.075 -0.05
					}
				}
			}
		}
	}
}
MOTION
Frames: 20
Frame Time: 0.025
0 0.955 0 -0 0 -0 -0.72845 3.6265 3.4572 2.0833 2.5452 -0.46125 2.0833 2.5452 -0.46125 1.7484 2.1391 -0.38119 -0 0 -0 35.642 7.8548 6.4802 -98.714 -18.116 2.7782 -0 0 -0 -0 0 -0 -8.3362 -11.331 -28.813 43.527 -24.068 -28.388 -0 0 -0 -0 0 -0 -0 0 -0 -0 0 -0 -0 0 -0 -0 0 -0 -0 0 -0 -0 0 -0 -0 0 -0 -0 0 -0 -0 0 -0 -0 0 -0 -0 0 -0 -0 0 -0 -0 0 -0 
0 0.955 0 -0 0 -0 -0.66248 3.7269 3.7017 2.2895 2.2583 -0.024402 2.2895 2.2583 -0.024402 1.9229 1.8971 -0.014428 -0 0 -0 35.402 6.5545 8.0562 -104.09 -21.274 -3.4124 -0 0 -0 -0 0 -0 -8.4645 -9.8424 -28.764 47.199 -22.145 -27.564 -0 0 -0 -0 0 -0 -0 0 -0 -0 0 -0 -0 0 -0 -0 0 -0 -0 0 -0 -0 0 -0 -0 0 -0 -0 0 -0 -0 0 -0 -0 0 -0 -0 0 -0 -0 0 -0 -0 0 -0 
0 0.955 0 -0 0 -0 -0.59933 3.8281 3.9445 2.4332 1.9861 0.35441 2.4332 1.9861 0.35441 2.0445 1.6673 0.30336 -0 0 -0 34.715 4.7302 11.11 -108.45 -22.816 -9.3143 -0 0 -0 -0 0 -0 -8.5155 -8.7306 -28.742 49.934 -20.423 -27.237 -0 0 -0 -0 0 -0 -0 0 -0 -0 0 -0 -0 0 -0 -0 0 -0 -0 0 -0 -0 0 -0 -0 0 -0 -0 0 -0 -0 0 -0 -0 0 -0 -0 0 -0 -0 0 -0 -0 0 -0 
0 0.955 0 -0 0 -0 -0.5404 3.9223 4.207 2.5646 1.6701 0.73512 2.5646 1.6701 0.73511 2.1556 1.4007 0.6225 -0 0 -0 33.661 2.3677 15.39 -111.83 -22.584 -12.748 -0 0 -0 -0 0 -0 -8.49 -7.6986 -28.629 51.574 -19.072 -26.381 -0 0 -0 -0 0 -0 -0 0 -0 -0 0 -0 -0 0 -0 -0 0 -0 -0 0 -0 -0 0 -0 -0 0 -0 -0 0 -0 -0 0 -0 -0 0 -0 -0 0 -0 -0 0 -0 -0 0 -0 
0 0.955 0 -0 0 -0 -0.47362 4.025 4.56 2.7131 1.3011 1.1088 2.7131 1.3011 1.1088 2.2807 1.0895 0.93552 -0 0 -0 32.227 -0.24873 20.092 -114.25 -21.457 -14.027 -0 0 -0 -0 0 -0 -8.2956 -6.4958 -28.316 52.434 -18.066 -24.927 -0 0 -0 -0 0 -0 -0 0 -0 -0 0 -0 -0 0 -0 -0 0 -0 -0 0 -0 -0 0 -0 -0 0 -0 -0 0 -0 -0 0 -0 -0 0 -0 -0 0 -0 -0 0 -0 -0 0 -0 
0 0.955 0 -0 0 -0 -0.38559 4.1422 5.0571 2.8525 0.93571 1.4214 2.8525 0.93572 1.4214 2.3977 0.78127 1.1971 -0 0 -0 30.526 -2.792 24.365 -116.17 -20.733 -14.546 -0 0 -0 -0 0 -0 -8.0883 -5.3026 -27.908 52.899 -17.453 -23.853 -0 0 -0 -0 0 -0 -0 0 -0 -0 0 -0 -0 0 -0 -0 0 -0 -0 0 -0 -0 0 -0 -0 0 -0 -0 0 -0 -0 0 -0 -0 0 -0 -0 0 -0 -0 0 -0 -0 0 -0 
0 0.955 0 -0 0 -0 -0.29124 4.2516 5.6692 2.9224 0.59436 1.6576 2.9224 0.59435 1.6576 2.4559 0.49359 1.3945 -0 0 -0 28.885 -4.9779 27.548 -117.84 -20.751 -14.851 -0 0 -0 -0 0 -0 -7.9479 -4.3579 -27.556 53.128 -17.177 -23.666 -0 0 -0 -0 0 -0 -0 0 -0 -0 0 -0 -0 0 -0 -0 0 -0 -0 0 -0 -0 0 -0 -0 0 -0 -0 0 -0 -0 0 -0 -0 0 -0 -0 0 -0 -0 0 -0 -0 0 -0 
0 0.955 0 -0 0 -0 -0.23708 4.3468 6.3155 2.8841 0.28806 1.8367 2.8841 0.28806 1.8367 2.4233 0.23577 1.5439 -0 0 -0 27.396 -6.652 29.37 -119.14 -21.125 -15.422 -0 0 -0 -0 0 -0 -7.7677 -3.7972 -27.323 53.229 -16.85 -24.08 -0 0 -0 -0 0 -0 -0 0 -0 -0 0 -0 -0 0 -0 -0 0 -0 -0 0 -0 -0 0 -0 -0 0 -0 -0 0 -0 -0 0 -0 -0 0 -0 -0 0 -0 -0 0 -0 -0 0 -0 
0 0.955 0 -0 0 -0 -0.25631 4.423 6.9391 2.7472 0.041028 1.9845 2.7472 0.041028 1.9845 2.3077 0.02807 1.6672 -0 0 -0 25.965 -7.8577 30.12 -119.85 -21.698 -16.655 -0 0 -0 -0 0 -0 -7.5353 -3.6177 -27.172 53.443 -16.318 -24.909 -0 0 -0 -0 0 -0 -0 0 -0 -0 0 -0 -0 0 -0 -0 0 -0 -0 0 -0 -0 0 -0 -0 0 -0 -0 0 -0 -0 0 -0 -0 0 -0 -0 0 -0 -0 0 -0 -0 0 -0 
0 0.955 0 -0 0 -0 -0.34808 4.4803 7.486 2.5503 -0.18295 2.1568 2.5503 -0.18295 2.1568 2.1418 -0.16014 1.8112 -0 0 -0 24.666 -8.5289 30.093 -120.07 -22.531 -18.346 -0 0 -0 -0 0 -0 -7.2251 -3.5028 -26.961 53.968 -16.055 -26.102 -0 0 -0 -0 0 -0 -0 0 -0 -0 0 -0 -0 0 -0 -0 0 -0 -0 0 -0 -0 0 -0 -0 0 -0 -0 0 -0 -0 0 -0 -0 0 -0 -0 0 -0 -0 0 -0 -0 0 -0 
0 0.955 0 -0 0 -0 -0.50618 4.539 7.8723 2.3396 -0.37791 2.4319 2.3396 -0.37791 2.4319 1.9642 -0.32413 2.0418 -0 0 -0 23.555 -8.7172 29.414 -120.01 -23.425 -19.925 -0 0 -0 -0 0 -0 -6.8561 -3.3483 -26.574 54.85 -16.323 -27.268 -0 0 -0 -0 0 -0 -0 0 -0 -0 0 -0 -0 0 -0 -0 0 -0 -0 0 -0 -0 0 -0 -0 0 -0 -0 0 -0 -0 0 -0 -0 0 -0 -0 0 -0 -0 0 -0 -0 0 -0 
0 0.955 0 -0 0 -0 -0.71715 4.6169 8.0097 2.1771 -0.51225 2.8331 2.1771 -0.51224 2.8331 1.8271 -0.43754 2.3785 -0 0 -0 22.449 -8.6122 28.4 -119.71 -23.986 -20.919 -0 0 -0 -0 0 -0 -6.6257 -3.2412 -25.962 56.13 -16.806 -27.836 -0 0 -0 -0 0 -0 -0 0 -0 -0 0 -0 -0 0 -0 -0 0 -0 -0 0 -0 -0 0 -0 -0 0 -0 -0 0 -0 -0 0 -0 -0 0 -0 -0 0 -0 -0 0 -0 -0 0 -0 
0 0.955 0 -0 0 -0 -0.94423 4.6935 7.8602 2.1059 -0.63788 3.3738 2.1059 -0.63788 3.3738 1.7665 -0.54418 2.8324 -0 0 -0 21.176 -8.1757 27.311 -119.04 -24.179 -21.62 -0 0 -0 -0 0 -0 -6.765 -3.0728 -25.292 57.89 -17.253 -27.724 -0 0 -0 -0 0 -0 -0 0 -0 -0 0 -0 -0 0 -0 -0 0 -0 -0 0 -0 -0 0 -0 -0 0 -0 -0 0 -0 -0 0 -0 -0 0 -0 -0 0 -0 -0 0 -0 -0 0 -0 
0 0.955 0 -0 0 -0 -1.1405 4.7671 7.4567 2.1225 -0.79855 4.0696 2.1225 -0.79855 4.0696 1.7792 -0.68095 3.4165 -0 0 -0 19.7 -7.2766 26.196 -117.99 -24.279 -22.697 -0 0 -0 -0 0 -0 -7.2616 -2.7746 -24.772 59.955 -17.739 -27.201 -0 0 -0 -0 0 -0 -0 0 -0 -0 0 -0 -0 0 -0 -0 0 -0 -0 0 -0 -0 0 -0 -0 0 -0 -0 0 -0 -0 0 -0 -0 0 -0 -0 0 -0 -0 0 -0 -0 0 -0 
0 0.955 0 -0 0 -0 -1.2649 4.8526 6.8901 2.1679 -0.94803 4.8848 2.1679 -0.94803 4.8848 1.8157 -0.80883 4.1008 -0 0 -0 18.15 -6.0364 25.201 -116.67 -24.247 -23.756 -0 0 -0 -0 0 -0 -7.7905 -2.4637 -24.425 62.043 -18.312 -26.269 -0 0 -0 -0 0 -0 -0 0 -0 -0 0 -0 -0 0 -0 -0 0 -0 -0 0 -0 -0 0 -0 -0 0 -0 -0 0 -0 -0 0 -0 -0 0 -0 -0 0 -0 -0 0 -0 -0 0 -0 
0 0.955 0 -0 0 -0 -1.2912 4.9252 6.2549 2.1501 -1.0086 5.765 2.1501 -1.0086 5.7651 1.7994 -0.86185 4.8401 -0 0 -0 16.799 -4.8375 24.562 -115.09 -23.904 -23.868 -0 0 -0 -0 0 -0 -8.042 -2.3297 -24.298 64.128 -18.876 -24.848 -0 0 -0 -0 0 -0 -0 0 -0 -0 0 -0 -0 0 -0 -0 0 -0 -0 0 -0 -0 0 -0 -0 0 -0 -0 0 -0 -0 0 -0 -0 0 -0 -0 0 -0 -0 0 -0 -0 0 -0 
0 0.955 0 -0 0 -0 -1.2211 4.9574 5.6292 2.0227 -0.98269 6.6901 2.0227 -0.98269 6.6901 1.6915 -0.84145 5.6173 -0 0 -0 15.784 -3.9325 24.266 -113.3 -23.484 -23.158 -0 0 -0 -0 0 -0 -8.008 -2.4801 -24.533 66.312 -19.407 -23.259 -0 0 -0 -0 0 -0 -0 0 -0 -0 0 -0 -0 0 -0 -0 0 -0 -0 0 -0 -0 0 -0 -0 0 -0 -0 0 -0 -0 0 -0 -0 0 -0 -0 0 -0 -0 0 -0 -0 0 -0 
0 0.955 0 -0 0 -0 -1.0856 4.9734 5.1049 1.8093 -0.92068 7.6284 1.8093 -0.92068 7.6284 1.5118 -0.7897 6.4059 -0 0 -0 15.026 -3.271 24.026 -111.4 -23.189 -22.443 -0 0 -0 -0 0 -0 -7.7997 -2.8945 -25.081 68.596 -20.011 -21.816 -0 0 -0 -0 0 -0 -0 0 -0 -0 0 -0 -0 0 -0 -0 0 -0 -0 0 -0 -0 0 -0 -0 0 -0 -0 0 -0 -0 0 -0 -0 0 -0 -0 0 -0 -0 0 -0 -0 0 -0 
0 0.955 0 -0 0 -0 -0.93425 5.0071 4.7594 1.5623 -0.84477 8.5447 1.5623 -0.84478 8.5447 1.3041 -0.72542 7.1759 -0 0 -0 14.429 -2.7205 23.464 -109.44 -22.855 -21.774 -0 0 -0 -0 0 -0 -7.5713 -3.4439 -25.809 71.035 -20.66 -20.33 -0 0 -0 -0 0 -0 -0 0 -0 -0 0 -0 -0 0 -0 -0 0 -0 -0 0 -0 -0 0 -0 -0 0 -0 -0 0 -0 -0 0 -0 -0 0 -0 -0 0 -0 -0 0 -0 -0 0 -0 
0 0.955 0 -0 0 -0 -0.81044 5.0414 4.6185 1.3392 -0.75572 9.4157 1.3392 -0.75572 9.4157 1.1169 -0.64976 7.908 -0 0 -0 13.885 -2.2284 22.406 -107.33 -22.487 -20.805 -0 0 -0 -0 0 -0 -7.5628 -4.0021 -26.693 73.788 -21.173 -18.581 -0 0 -0 -0 0 -0 -0 0 -0 -0 0 -0 -0 0 -0 -0 0 -0 -0 0 -0 -0 0 -0 -0 0 -0 -0 0 -0 -0 0 -0 -0 0 -0 -0 0 -0 -0 0 -0 -0 0 -0 
